<svg width="40" height="19" viewBox="0 0 40 19" fill="none" xmlns="http://www.w3.org/2000/svg">
<path d="M11.4969 17.9469C13.0186 14.7665 16.1746 12.7219 19.6688 12.7219C23.163 12.7219 26.3754 14.7665 27.897 17.9469L26.6008 18.5717C25.3046 15.9024 22.6558 14.1986 19.6688 14.1986C16.7382 14.1986 14.033 15.9024 12.7932 18.5717L11.4969 17.9469Z" fill="black"/>
<path d="M19.6688 2.1582C22.3176 2.1582 24.4592 4.31635 24.4592 6.98564C24.4592 9.65493 22.3176 11.8131 19.6688 11.8131C17.02 11.8131 14.9348 9.65493 14.9348 6.98564C14.9348 4.31635 17.02 2.1582 19.6688 2.1582ZM19.6688 3.57804C17.809 3.57804 16.3437 5.11146 16.3437 6.98564C16.3437 8.85983 17.809 10.3365 19.6688 10.3365C21.5286 10.3365 23.0503 8.85983 23.0503 6.98564C23.0503 5.11146 21.5286 3.57804 19.6688 3.57804Z" fill="black"/>
<path d="M25.6991 12.4379C27.2208 11.2452 29.1369 10.5637 31.1658 10.5637C34.66 10.5637 37.8723 12.6083 39.394 15.7887L38.0978 16.4134C36.8015 13.7442 34.1527 12.0403 31.1658 12.0403C29.5878 12.0403 28.1225 12.4947 26.8826 13.3466C26.4881 13.0058 26.0936 12.7219 25.6991 12.4379Z" fill="black"/>
<path d="M31.1658 0C33.8146 0 35.9562 2.15815 35.9562 4.82744C35.9562 7.43994 33.8146 9.59809 31.1658 9.59809C28.517 9.59809 26.3754 7.43994 26.3754 4.82744C26.3754 2.15815 28.517 0 31.1658 0ZM31.1658 1.41984C29.306 1.41984 27.8407 2.95326 27.8407 4.82744C27.8407 6.70162 29.306 8.17825 31.1658 8.17825C33.0256 8.17825 34.4909 6.70162 34.4909 4.82744C34.4909 2.95326 33.0256 1.41984 31.1658 1.41984Z" fill="black"/>
<path d="M0 15.7887C1.52166 12.6083 4.67769 10.5637 8.17186 10.5637C10.2007 10.5637 12.1169 11.2452 13.6949 12.4379C13.244 12.7219 12.8495 13.0058 12.455 13.3466C11.2152 12.4947 9.74987 12.0403 8.17186 12.0403C5.24126 12.0403 2.53609 13.7442 1.29623 16.4134L0 15.7887Z" fill="black"/>
<path d="M8.17184 0C10.8207 0 12.9622 2.15815 12.9622 4.82744C12.9622 7.43994 10.8207 9.59809 8.17184 9.59809C5.57939 9.59809 3.43781 7.43994 3.43781 4.82744C3.43781 2.15815 5.57939 0 8.17184 0ZM8.17184 1.41984C6.3684 1.41984 4.84675 2.95326 4.84675 4.82744C4.84675 6.70162 6.3684 8.17825 8.17184 8.17825C10.0316 8.17825 11.5533 6.70162 11.5533 4.82744C11.5533 2.95326 10.0316 1.41984 8.17184 1.41984Z" fill="black"/>
</svg>
