<svg width="23" height="23" viewBox="0 0 23 23" fill="none" xmlns="http://www.w3.org/2000/svg">
<path d="M11.1388 14.2617C11.7451 14.0885 12.3381 14.2284 12.7179 14.6349C12.8045 14.7281 12.9112 14.8614 13.0378 15.0146C13.744 15.8808 15.0633 17.4866 17.3087 17.4866C17.8817 17.4866 18.5214 17.38 19.221 17.1335C20.7801 16.5804 21.8395 15.1879 22.2859 13.1157C22.6057 11.6365 22.4991 10.3173 22.4925 10.264C22.2326 7.18569 20.8867 4.61379 18.4947 2.62157C18.0816 2.28176 17.7151 2.00192 17.362 1.77538C16.0694 0.91586 14.6435 0.362836 13.1377 0.129633C12.1982 -0.0102885 11.2321 -0.0369401 10.266 0.0496782C7.20768 0.322859 4.63578 1.66877 2.62357 4.04078L2.61691 4.04744C0.651344 6.42611 -0.214839 9.19123 0.0450159 12.2695C0.318196 15.3545 1.66411 17.9263 4.04278 19.9119C6.2149 21.7309 8.3537 22.5438 10.9589 22.5438C10.9789 22.5438 10.9989 22.5438 11.0255 22.5438C12.2049 22.5371 13.0777 22.0574 13.3576 21.2578C13.744 20.1518 12.9511 18.7859 10.9922 17.2067C10.2193 16.5804 9.85286 15.9275 9.9728 15.3611C10.0794 14.8614 10.5325 14.435 11.1388 14.2617ZM10.1594 18.2328C11.9117 19.6454 12.2049 20.5182 12.1049 20.8114C12.025 21.0446 11.5786 21.2045 11.0189 21.2112C10.9989 21.2112 10.9789 21.2112 10.9589 21.2112C8.65354 21.2112 6.84122 20.5182 4.89564 18.8925C2.77016 17.1201 1.61747 14.9147 1.37094 12.1562C1.13774 9.40445 1.87732 7.03244 3.643 4.89364C5.442 2.76816 7.64743 1.61547 10.3792 1.36894C11.2388 1.28898 12.0983 1.31564 12.9311 1.44223C14.2637 1.64878 15.4764 2.12185 16.6224 2.88143C16.6224 2.88143 16.6291 2.88143 16.6291 2.88809C16.9356 3.08798 17.2687 3.33451 17.6352 3.641C19.774 5.42667 20.9267 7.6321 21.1599 10.3772C21.1665 10.4239 21.513 14.9014 18.7745 15.8808C16.216 16.7936 14.9234 15.2145 14.0638 14.1751C13.9239 14.0019 13.804 13.8553 13.6841 13.7287C12.9511 12.9491 11.8651 12.6759 10.7657 12.9891C9.68629 13.2956 8.86009 14.1218 8.66686 15.0946C8.37369 16.5338 9.47974 17.6798 10.1594 18.2328Z" fill="black"/>
<path d="M11.2254 5.12676C11.2254 3.97407 10.286 3.04126 9.13994 3.04126C7.98726 3.04126 7.05444 3.98074 7.05444 5.12676C7.05444 6.27945 7.99392 7.21226 9.13994 7.21226C10.286 7.21893 11.2254 6.27945 11.2254 5.12676ZM8.38037 5.12676C8.38037 4.707 8.72018 4.37385 9.13328 4.37385C9.55305 4.37385 9.88619 4.71366 9.88619 5.12676C9.88619 5.53986 9.54638 5.87967 9.13328 5.87967C8.72018 5.88634 8.38037 5.54653 8.38037 5.12676Z" fill="black"/>
<path d="M14.0372 7.2191C15.1899 7.2191 16.1227 6.27962 16.1227 5.1336C16.1227 3.98091 15.1832 3.0481 14.0372 3.0481C12.8911 3.0481 11.9517 3.98757 11.9517 5.1336C11.9517 6.27962 12.8845 7.2191 14.0372 7.2191ZM14.0372 4.37402C14.4569 4.37402 14.7901 4.71383 14.7901 5.12693C14.7901 5.54004 14.4503 5.87985 14.0372 5.87985C13.6241 5.87985 13.2842 5.54004 13.2842 5.12693C13.2842 4.71383 13.6241 4.37402 14.0372 4.37402Z" fill="black"/>
<path d="M15.4497 8.45146C15.4497 9.60415 16.3892 10.537 17.5352 10.537C18.6879 10.537 19.6207 9.59748 19.6207 8.45146C19.6207 7.29877 18.6812 6.36597 17.5352 6.36597C16.3892 6.36597 15.4497 7.30544 15.4497 8.45146ZM17.5352 7.69855C17.955 7.69855 18.2881 8.03836 18.2881 8.45146C18.2881 8.87122 17.9483 9.20437 17.5352 9.20437C17.1154 9.20437 16.7823 8.86456 16.7823 8.45146C16.7823 8.03836 17.1221 7.69855 17.5352 7.69855Z" fill="black"/>
<path d="M5.47533 6.62598C4.32264 6.62598 3.38983 7.56545 3.38983 8.71148C3.38983 9.86416 4.32931 10.797 5.47533 10.797C6.62802 10.797 7.56083 9.8575 7.56083 8.71148C7.56083 7.55879 6.62802 6.62598 5.47533 6.62598ZM5.47533 9.47105C5.05557 9.47105 4.72242 9.13124 4.72242 8.71814C4.72242 8.29837 5.06223 7.96523 5.47533 7.96523C5.8951 7.96523 6.22824 8.30504 6.22824 8.71814C6.22824 9.13124 5.88843 9.47105 5.47533 9.47105Z" fill="black"/>
</svg>
